<?xml version="1.0" encoding="UTF-8" standalone="no"?>
<svg
   xmlns:dc="http://purl.org/dc/elements/1.1/"
   xmlns:cc="http://creativecommons.org/ns#"
   xmlns:rdf="http://www.w3.org/1999/02/22-rdf-syntax-ns#"
   xmlns:svg="http://www.w3.org/2000/svg"
   xmlns="http://www.w3.org/2000/svg"
   xmlns:sodipodi="http://sodipodi.sourceforge.net/DTD/sodipodi-0.dtd"
   xmlns:inkscape="http://www.inkscape.org/namespaces/inkscape"
   enable-background="new 0 0 32 32"
   version="1.1"
   viewBox="0 0 32 32"
   xml:space="preserve"
   id="svg29"
   sodipodi:docname="overcast.svg"
   inkscape:version="0.92.2 5c3e80d, 2017-08-06"><metadata
     id="metadata35"><rdf:RDF><cc:Work
         rdf:about=""><dc:format>image/svg+xml</dc:format><dc:type
           rdf:resource="http://purl.org/dc/dcmitype/StillImage" /></cc:Work></rdf:RDF></metadata><defs
     id="defs33" /><sodipodi:namedview
     pagecolor="#ffffff"
     bordercolor="#666666"
     borderopacity="1"
     objecttolerance="10"
     gridtolerance="10"
     guidetolerance="10"
     inkscape:pageopacity="0"
     inkscape:pageshadow="2"
     inkscape:window-width="1346"
     inkscape:window-height="816"
     id="namedview31"
     showgrid="false"
     inkscape:zoom="18.179715"
     inkscape:cx="10.095477"
     inkscape:cy="23.599347"
     inkscape:window-x="0"
     inkscape:window-y="0"
     inkscape:window-maximized="0"
     inkscape:current-layer="svg29" /><g
     id="Layer_2" /><g
     id="Layer_3" /><g
     id="Layer_4" /><g
     id="Layer_5" /><g
     id="Layer_6" /><g
     id="Layer_7" /><g
     id="Layer_8" /><g
     id="Layer_9" /><g
     id="Layer_10" /><g
     id="Layer_11" /><g
     id="Layer_12" /><g
     id="Layer_13" /><g
     id="Layer_14" /><g
     id="Layer_15" /><g
     id="Layer_16" /><g
     id="Layer_17" /><g
     id="Layer_18" /><g
     id="Layer_19" /><g
     id="Layer_20" /><g
     id="Layer_21" /><g
     id="Layer_22" /><g
     id="Layer_23" /><g
     id="Layer_24" /><g
     id="Layer_25" /><g
     id="Wearher"><path
       d="M 21,6 C 17.1,6 13.5,8.1 11.9,11.2 10.8,10.4 9.4,10 8,10 c -3.9,0 -7,3.1 -7,7 0,3.9 3.1,7 7,7 h 13 c 5.5,0 10,-4 10,-9 0,-5 -4.5,-9 -10,-9 z"
       id="path26"
       inkscape:connector-curvature="0"
       style="fill:#607c8b" /></g><g
     id="g39"
     transform="matrix(0.88700565,0,0,0.88700565,4.1552105,2.7668708)"
     style="fill:#cccccc"><path
       style="fill:#cccccc"
       inkscape:connector-curvature="0"
       id="path37"
       d="M 21,6 C 17.1,6 13.5,8.1 11.9,11.2 10.8,10.4 9.4,10 8,10 c -3.9,0 -7,3.1 -7,7 0,3.9 3.1,7 7,7 h 13 c 5.5,0 10,-4 10,-9 0,-5 -4.5,-9 -10,-9 z" /></g></svg>