<?xml version="1.0" encoding="UTF-8" standalone="no"?>
<svg
   xmlns:dc="http://purl.org/dc/elements/1.1/"
   xmlns:cc="http://creativecommons.org/ns#"
   xmlns:rdf="http://www.w3.org/1999/02/22-rdf-syntax-ns#"
   xmlns:svg="http://www.w3.org/2000/svg"
   xmlns="http://www.w3.org/2000/svg"
   xmlns:sodipodi="http://sodipodi.sourceforge.net/DTD/sodipodi-0.dtd"
   xmlns:inkscape="http://www.inkscape.org/namespaces/inkscape"
   enable-background="new 0 0 32 32"
   version="1.1"
   viewBox="0 0 32 32"
   xml:space="preserve"
   id="svg37"
   sodipodi:docname="partially_cloudy_night.svg"
   inkscape:version="0.92.2 5c3e80d, 2017-08-06"><metadata
     id="metadata43"><rdf:RDF><cc:Work
         rdf:about=""><dc:format>image/svg+xml</dc:format><dc:type
           rdf:resource="http://purl.org/dc/dcmitype/StillImage" /></cc:Work></rdf:RDF></metadata><defs
     id="defs41" /><sodipodi:namedview
     pagecolor="#ffffff"
     bordercolor="#666666"
     borderopacity="1"
     objecttolerance="10"
     gridtolerance="10"
     guidetolerance="10"
     inkscape:pageopacity="0"
     inkscape:pageshadow="2"
     inkscape:window-width="726"
     inkscape:window-height="480"
     id="namedview39"
     showgrid="false"
     inkscape:zoom="7.375"
     inkscape:cx="16"
     inkscape:cy="16"
     inkscape:window-x="0"
     inkscape:window-y="0"
     inkscape:window-maximized="0"
     inkscape:current-layer="svg37" /><g
     id="Layer_2" /><g
     id="Layer_3" /><g
     id="Layer_4" /><g
     id="Layer_5" /><g
     id="Layer_6" /><g
     id="Layer_7" /><g
     id="Layer_8" /><g
     id="Layer_9" /><g
     id="Layer_10" /><g
     id="Layer_11" /><g
     id="Layer_12" /><g
     id="Layer_13" /><g
     id="Layer_14" /><g
     id="Layer_15" /><g
     id="Layer_16" /><g
     id="Layer_17" /><g
     id="Layer_18"><g
       id="g22"><g
         id="g20"><path
           d="m 14.9,10.5 c -0.8,0.8 -1.3,1.7 -1.6,2.6 -0.1,0.3 -0.4,0.6 -0.7,0.7 -0.1,0 -0.2,0 -0.2,0 -0.3,0 -0.5,-0.1 -0.7,-0.3 C 10.7,12.5 9.4,12 8,12 7,12 6,12.3 5.2,12.8 5,13 4.7,13.1 4.5,13 4.2,12.9 4,12.8 3.9,12.5 3.5,11.8 3.1,11 2.9,10.2 2,6.5 3.8,2.8 7.3,1.1 7.6,0.9 8,1 8.3,1.2 c 0.3,0.2 0.5,0.6 0.4,0.9 -0.1,0.7 0,1.4 0.1,2 0.6,2.6 2.8,4.5 5.5,4.7 0.4,0 0.7,0.3 0.9,0.7 0,0.3 -0.1,0.8 -0.3,1 z"
           id="path18"
           inkscape:connector-curvature="0"
           style="fill:#ffc10a" /></g></g><g
       id="g26"
       style="fill:#cccccc"><path
         d="m 31,15 c 0,5 -4.5,9 -10,9 H 8 C 4.1,24 1,20.9 1,17 1,14.7 2.2,12.5 4.1,11.2 6.4,9.6 9.6,9.7 11.9,11.2 12.3,10.5 12.8,9.8 13.4,9.1 15.3,7.1 18.1,6 21,6 c 5.5,0 10,4 10,9 z"
         id="path24"
         inkscape:connector-curvature="0"
         style="fill:#cccccc" /></g></g><g
     id="Layer_19" /><g
     id="Layer_20" /><g
     id="Layer_21" /><g
     id="Layer_22" /><g
     id="Layer_23" /><g
     id="Layer_24" /><g
     id="Layer_25" /><g
     id="Wearher" /></svg>