<?xml version="1.0" encoding="UTF-8" standalone="no"?>
<svg
   xmlns:dc="http://purl.org/dc/elements/1.1/"
   xmlns:cc="http://creativecommons.org/ns#"
   xmlns:rdf="http://www.w3.org/1999/02/22-rdf-syntax-ns#"
   xmlns:svg="http://www.w3.org/2000/svg"
   xmlns="http://www.w3.org/2000/svg"
   xmlns:sodipodi="http://sodipodi.sourceforge.net/DTD/sodipodi-0.dtd"
   xmlns:inkscape="http://www.inkscape.org/namespaces/inkscape"
   enable-background="new 0 0 32 32"
   version="1.1"
   viewBox="0 0 32 32"
   xml:space="preserve"
   id="svg49"
   sodipodi:docname="scattered_showers_day.svg"
   inkscape:version="0.92.2 5c3e80d, 2017-08-06"><metadata
     id="metadata55"><rdf:RDF><cc:Work
         rdf:about=""><dc:format>image/svg+xml</dc:format><dc:type
           rdf:resource="http://purl.org/dc/dcmitype/StillImage" /></cc:Work></rdf:RDF></metadata><defs
     id="defs53" /><sodipodi:namedview
     pagecolor="#ffffff"
     bordercolor="#666666"
     borderopacity="1"
     objecttolerance="10"
     gridtolerance="10"
     guidetolerance="10"
     inkscape:pageopacity="0"
     inkscape:pageshadow="2"
     inkscape:window-width="726"
     inkscape:window-height="480"
     id="namedview51"
     showgrid="false"
     inkscape:zoom="7.375"
     inkscape:cx="16"
     inkscape:cy="16"
     inkscape:window-x="0"
     inkscape:window-y="0"
     inkscape:window-maximized="0"
     inkscape:current-layer="svg49" /><g
     id="Layer_2" /><g
     id="Layer_3" /><g
     id="Layer_4" /><g
     id="Layer_5" /><g
     id="Layer_6" /><g
     id="Layer_7" /><g
     id="Layer_8"><g
       id="g20"><path
         d="m 16,22 c -0.6,0 -1,0.4 -1,1 v 3 c 0,0.6 0.4,1 1,1 0.6,0 1,-0.4 1,-1 v -3 c 0,-0.6 -0.4,-1 -1,-1 z"
         id="path8"
         inkscape:connector-curvature="0"
         style="fill:#16bcd4" /><path
         d="m 16,28 c -0.6,0 -1,0.4 -1,1 v 1 c 0,0.6 0.4,1 1,1 0.6,0 1,-0.4 1,-1 v -1 c 0,-0.6 -0.4,-1 -1,-1 z"
         id="path10"
         inkscape:connector-curvature="0"
         style="fill:#16bcd4" /><path
         d="m 10,22 c -0.6,0 -1,0.4 -1,1 v 3 c 0,0.6 0.4,1 1,1 0.6,0 1,-0.4 1,-1 v -3 c 0,-0.6 -0.4,-1 -1,-1 z"
         id="path12"
         inkscape:connector-curvature="0"
         style="fill:#16bcd4" /><path
         d="m 10,28 c -0.6,0 -1,0.4 -1,1 v 1 c 0,0.6 0.4,1 1,1 0.6,0 1,-0.4 1,-1 v -1 c 0,-0.6 -0.4,-1 -1,-1 z"
         id="path14"
         inkscape:connector-curvature="0"
         style="fill:#16bcd4" /><path
         d="m 22,22 c -0.6,0 -1,0.4 -1,1 v 3 c 0,0.6 0.4,1 1,1 0.6,0 1,-0.4 1,-1 v -3 c 0,-0.6 -0.4,-1 -1,-1 z"
         id="path16"
         inkscape:connector-curvature="0"
         style="fill:#16bcd4" /><path
         d="m 22,28 c -0.6,0 -1,0.4 -1,1 v 1 c 0,0.6 0.4,1 1,1 0.6,0 1,-0.4 1,-1 v -1 c 0,-0.6 -0.4,-1 -1,-1 z"
         id="path18"
         inkscape:connector-curvature="0"
         style="fill:#16bcd4" /></g><g
       id="g24"><path
         d="m 16.1,9.5 c -1.4,0.9 -2.4,2.2 -2.8,3.7 -0.1,0.3 -0.4,0.6 -0.7,0.7 -0.1,0 -0.2,0 -0.2,0 -0.3,0 -0.5,-0.1 -0.7,-0.3 C 10.7,12.5 9.4,12 8,12 6.8,12 5.7,12.4 4.8,13.1 4.5,13.3 4.2,13.4 3.8,13.3 3.5,13.2 3.2,12.9 3.1,12.6 3.1,12.1 3,11.5 3,11 3,7.1 6.1,4 10,4 c 2.8,0 5.3,1.7 6.5,4.3 0.1,0.4 0,0.9 -0.4,1.2 z"
         id="path22"
         inkscape:connector-curvature="0"
         style="fill:#ffc10a" /></g><g
       id="g28"
       style="fill:#cccccc"><path
         d="m 31,15 c 0,5 -4.5,9 -10,9 H 8 C 4.1,24 1,20.9 1,17 1,14.9 1.9,13 3.5,11.6 4.8,10.6 6.4,10 8,10 c 1.4,0 2.8,0.4 3.9,1.2 0.7,-1.3 1.7,-2.5 3,-3.4 C 16.7,6.6 18.8,6 21,6 c 5.5,0 10,4 10,9 z"
         id="path26"
         inkscape:connector-curvature="0"
         style="fill:#cccccc" /></g></g><g
     id="Layer_9" /><g
     id="Layer_10" /><g
     id="Layer_11" /><g
     id="Layer_12" /><g
     id="Layer_13" /><g
     id="Layer_14" /><g
     id="Layer_15" /><g
     id="Layer_16" /><g
     id="Layer_17" /><g
     id="Layer_18" /><g
     id="Layer_19" /><g
     id="Layer_20" /><g
     id="Layer_21" /><g
     id="Layer_22" /><g
     id="Layer_23" /><g
     id="Layer_24" /><g
     id="Layer_25" /><g
     id="Wearher" /></svg>