<?xml version="1.0" encoding="UTF-8" standalone="no"?>
<svg
   xmlns:dc="http://purl.org/dc/elements/1.1/"
   xmlns:cc="http://creativecommons.org/ns#"
   xmlns:rdf="http://www.w3.org/1999/02/22-rdf-syntax-ns#"
   xmlns:svg="http://www.w3.org/2000/svg"
   xmlns="http://www.w3.org/2000/svg"
   xmlns:sodipodi="http://sodipodi.sourceforge.net/DTD/sodipodi-0.dtd"
   xmlns:inkscape="http://www.inkscape.org/namespaces/inkscape"
   enable-background="new 0 0 32 32"
   version="1.1"
   viewBox="0 0 32 32"
   xml:space="preserve"
   id="svg41"
   sodipodi:docname="tornado.svg"
   inkscape:version="0.92.2 5c3e80d, 2017-08-06"><metadata
     id="metadata47"><rdf:RDF><cc:Work
         rdf:about=""><dc:format>image/svg+xml</dc:format><dc:type
           rdf:resource="http://purl.org/dc/dcmitype/StillImage" /></cc:Work></rdf:RDF></metadata><defs
     id="defs45" /><sodipodi:namedview
     pagecolor="#ffffff"
     bordercolor="#666666"
     borderopacity="1"
     objecttolerance="10"
     gridtolerance="10"
     guidetolerance="10"
     inkscape:pageopacity="0"
     inkscape:pageshadow="2"
     inkscape:window-width="1156"
     inkscape:window-height="763"
     id="namedview43"
     showgrid="false"
     inkscape:zoom="7.375"
     inkscape:cx="16"
     inkscape:cy="16"
     inkscape:window-x="0"
     inkscape:window-y="0"
     inkscape:window-maximized="0"
     inkscape:current-layer="svg41" /><g
     id="Layer_2" /><g
     id="Layer_3" /><g
     id="Layer_4" /><g
     id="Layer_5" /><g
     id="Layer_6" /><g
     id="Layer_7" /><g
     id="Layer_8" /><g
     id="Layer_9" /><g
     id="Layer_10" /><g
     id="Layer_11" /><g
     id="Layer_12"
     style="fill:#808080"><g
       id="g24"
       style="fill:#808080"><path
         d="M 24,13 H 8 c -0.6,0 -1,0.4 -1,1 0,0.6 0.4,1 1,1 h 16 c 0.6,0 1,-0.4 1,-1 0,-0.6 -0.4,-1 -1,-1 z"
         id="path12"
         inkscape:connector-curvature="0"
         style="fill:#b3b3b3" /><path
         d="m 19,18 c 0,-0.6 -0.4,-1 -1,-1 H 6 c -0.6,0 -1,0.4 -1,1 0,0.6 0.4,1 1,1 h 12 c 0.6,0 1,-0.4 1,-1 z"
         id="path14"
         inkscape:connector-curvature="0"
         style="fill:#666666" /><path
         d="M 21,21 H 9 c -0.6,0 -1,0.4 -1,1 0,0.6 0.4,1 1,1 h 12 c 0.6,0 1,-0.4 1,-1 0,-0.6 -0.4,-1 -1,-1 z"
         id="path16"
         inkscape:connector-curvature="0"
         style="fill:#b3b3b3" /><path
         d="m 20,25 h -8 c -0.6,0 -1,0.4 -1,1 0,0.6 0.4,1 1,1 h 8 c 0.6,0 1,-0.4 1,-1 0,-0.6 -0.4,-1 -1,-1 z"
         id="path18"
         inkscape:connector-curvature="0"
         style="fill:#808080" /><path
         d="m 18,29 h -4 c -0.6,0 -1,0.4 -1,1 0,0.6 0.4,1 1,1 h 4 c 0.6,0 1,-0.4 1,-1 0,-0.6 -0.4,-1 -1,-1 z"
         id="path20"
         inkscape:connector-curvature="0"
         style="fill:#cccccc" /><path
         d="M 28,1 H 2 C 1.4,1 1,1.4 1,2 1,2.6 1.4,3 2,3 h 26 c 0.6,0 1,0.4 1,1 0,0.6 -0.4,1 -1,1 H 6 C 4.3,5 3,6.3 3,8 c 0,1.7 1.3,3 3,3 h 20 c 0.6,0 1,-0.4 1,-1 C 27,9.4 26.6,9 26,9 H 6 C 5.4,9 5,8.6 5,8 5,7.4 5.4,7 6,7 H 28 C 29.7,7 31,5.7 31,4 31,2.3 29.7,1 28,1 Z"
         id="path22"
         inkscape:connector-curvature="0"
         style="fill:#808080" /></g></g><g
     id="Layer_13" /><g
     id="Layer_14" /><g
     id="Layer_15" /><g
     id="Layer_16" /><g
     id="Layer_17" /><g
     id="Layer_18" /><g
     id="Layer_19" /><g
     id="Layer_20" /><g
     id="Layer_21" /><g
     id="Layer_22" /><g
     id="Layer_23" /><g
     id="Layer_24" /><g
     id="Layer_25" /><g
     id="Wearher" /></svg>