<?xml version="1.0" encoding="UTF-8" standalone="no"?>
<svg
   xmlns:dc="http://purl.org/dc/elements/1.1/"
   xmlns:cc="http://creativecommons.org/ns#"
   xmlns:rdf="http://www.w3.org/1999/02/22-rdf-syntax-ns#"
   xmlns:svg="http://www.w3.org/2000/svg"
   xmlns="http://www.w3.org/2000/svg"
   xmlns:sodipodi="http://sodipodi.sourceforge.net/DTD/sodipodi-0.dtd"
   xmlns:inkscape="http://www.inkscape.org/namespaces/inkscape"
   enable-background="new 0 0 32 32"
   version="1.1"
   viewBox="0 0 32 32"
   xml:space="preserve"
   id="svg45"
   sodipodi:docname="tropical_storm.svg"
   inkscape:version="0.92.2 5c3e80d, 2017-08-06"><metadata
     id="metadata51"><rdf:RDF><cc:Work
         rdf:about=""><dc:format>image/svg+xml</dc:format><dc:type
           rdf:resource="http://purl.org/dc/dcmitype/StillImage" /><dc:title></dc:title></cc:Work></rdf:RDF></metadata><defs
     id="defs49" /><sodipodi:namedview
     pagecolor="#ffffff"
     bordercolor="#666666"
     borderopacity="1"
     objecttolerance="10"
     gridtolerance="10"
     guidetolerance="10"
     inkscape:pageopacity="0"
     inkscape:pageshadow="2"
     inkscape:window-width="745"
     inkscape:window-height="480"
     id="namedview47"
     showgrid="false"
     inkscape:zoom="5.6568543"
     inkscape:cx="21.729937"
     inkscape:cy="11.009175"
     inkscape:window-x="448"
     inkscape:window-y="30"
     inkscape:window-maximized="0"
     inkscape:current-layer="svg45" /><g
     id="Layer_2" /><g
     id="Layer_3" /><g
     id="Layer_4" /><g
     id="Layer_5" /><g
     id="Layer_6" /><g
     id="Layer_7" /><g
     id="Layer_8" /><g
     id="Layer_9" /><g
     id="Layer_10" /><g
     id="Layer_11" /><g
     id="Layer_12" /><g
     id="Layer_13" /><g
     id="Layer_14" /><g
     id="Layer_15" /><g
     id="Layer_16" /><g
     id="Layer_17" /><g
     id="Layer_18" /><g
     id="Layer_19" /><g
     id="Layer_20" /><g
     id="Layer_21" /><g
     id="Layer_22"><g
       id="g34"><path
         d="M 16.5,22.1 C 16,21.8 15.4,22 15.1,22.5 l -1.2,2.2 c -0.3,0.5 -0.1,1.1 0.4,1.4 0.2,0.1 0.3,0.1 0.5,0.1 0.3,0 0.7,-0.2 0.9,-0.5 l 1.2,-2.2 C 17.1,23 17,22.4 16.5,22.1 Z"
         id="path22"
         inkscape:connector-curvature="0"
         style="fill:#16bcd4" /><path
         d="m 13.7,27 c -0.5,-0.3 -1.1,-0.1 -1.4,0.4 l -1.2,2.2 c -0.3,0.5 -0.1,1.1 0.4,1.4 0.2,0 0.3,0 0.5,0 0.3,0 0.7,-0.2 0.9,-0.5 l 1.2,-2.2 c 0.3,-0.5 0.1,-1.1 -0.4,-1.3 z"
         id="path24"
         inkscape:connector-curvature="0"
         style="fill:#16bcd4" /><path
         d="M 10.5,22.1 C 10,21.9 9.4,22 9.1,22.5 l -1.2,2.2 c -0.3,0.5 -0.1,1.1 0.4,1.4 0.2,0.1 0.3,0.1 0.5,0.1 0.3,0 0.7,-0.2 0.9,-0.5 l 1.2,-2.2 C 11.1,23 11,22.4 10.5,22.1 Z"
         id="path26"
         inkscape:connector-curvature="0"
         style="fill:#16bcd4" /><path
         d="M 7.7,27 C 7.2,26.7 6.6,26.9 6.3,27.4 L 5.1,29.6 C 4.9,30 5,30.6 5.5,30.9 5.7,31 5.8,31 6,31 6.3,31 6.7,30.8 6.9,30.5 L 8.1,28.3 C 8.4,27.8 8.2,27.2 7.7,27 Z"
         id="path28"
         inkscape:connector-curvature="0"
         style="fill:#16bcd4" /><path
         d="M 22.5,22.1 C 22,21.8 21.4,22 21.1,22.5 l -1.2,2.2 c -0.3,0.5 -0.1,1.1 0.4,1.4 0.2,0.1 0.3,0.1 0.5,0.1 0.3,0 0.7,-0.2 0.9,-0.5 l 1.2,-2.2 C 23.1,23 23,22.4 22.5,22.1 Z"
         id="path30"
         inkscape:connector-curvature="0"
         style="fill:#16bcd4" /><path
         d="m 19.7,27 c -0.5,-0.3 -1.1,-0.1 -1.4,0.4 l -1.2,2.2 c -0.3,0.5 -0.1,1.1 0.4,1.4 0.2,0 0.3,0 0.5,0 0.3,0 0.7,-0.2 0.9,-0.5 l 1.2,-2.2 c 0.3,-0.5 0.1,-1.1 -0.4,-1.3 z"
         id="path32"
         inkscape:connector-curvature="0"
         style="fill:#16bcd4" /></g><g
       id="g38"><path
         d="m 31,15 c 0,5 -4.5,9 -10,9 H 8 c -3.9,0 -7,-3.1 -7,-7 0,-3.9 3.1,-7 7,-7 1.4,0 2.8,0.4 3.9,1.2 C 13.5,8.1 17.1,6 21,6 c 5.5,0 10,4 10,9 z"
         id="path36"
         inkscape:connector-curvature="0"
         style="fill:#607c8b" /></g></g><g
     id="Layer_23" /><g
     id="Layer_24" /><g
     id="Layer_25" /><g
     id="Wearher" /><g
     id="g352"
     transform="matrix(0.64045213,0,0,0.81,10.795455,6.49)"><g
       id="Layer_2-7" /><g
       id="Layer_3-9" /><g
       id="Layer_4-3" /><g
       id="Layer_5-8" /><g
       id="Layer_6-0" /><g
       id="Layer_7-2" /><g
       id="Layer_8-4" /><g
       id="Layer_9-8" /><g
       id="Layer_10-3" /><g
       id="Layer_11-9" /><g
       id="Layer_12-0" /><g
       id="Layer_13-5" /><g
       id="Layer_14-2" /><g
       id="Layer_15-2" /><g
       id="Layer_16-7"><g
         id="g22"><path
           style="fill:#ffc10a"
           inkscape:connector-curvature="0"
           id="path20"
           d="M 26.9,16.9 19.7,30.5 C 19.5,30.8 19.2,31 18.8,31 18.7,31 18.6,31 18.5,31 18,30.9 17.7,30.4 17.8,29.9 L 18.9,21 H 14 c -0.4,0 -0.7,-0.2 -0.9,-0.5 -0.2,-0.3 -0.2,-0.7 0,-1 l 6,-10 c 0.2,-0.4 0.7,-0.6 1.1,-0.5 0.4,0.1 0.7,0.5 0.7,1 v 5.4 h 5 c 0.3,0 0.7,0.2 0.9,0.5 0.2,0.3 0.2,0.7 0.1,1 z" /></g></g><g
       id="Layer_17-3" /><g
       id="Layer_18-7" /><g
       id="Layer_19-9" /><g
       id="Layer_20-0" /><g
       id="Layer_21-2" /><g
       id="Layer_22-3" /><g
       id="Layer_23-9" /><g
       id="Layer_24-9" /><g
       id="Layer_25-7" /><g
       id="Wearher-0" /></g></svg>